<mxfile host="Electron" agent="Mozilla/5.0 (Macintosh; Intel Mac OS X 10_15_7) AppleWebKit/537.36 (KHTML, like Gecko) draw.io/26.0.9 Chrome/128.0.6613.186 Electron/32.2.5 Safari/537.36" version="26.0.9">
  <diagram name="Page-1" id="FrR8ZcagXnucVyD5-vWm">
    <mxGraphModel dx="1631" dy="973" grid="1" gridSize="10" guides="1" tooltips="1" connect="1" arrows="1" fold="1" page="1" pageScale="1" pageWidth="1100" pageHeight="850" math="0" shadow="0">
      <root>
        <mxCell id="0" />
        <mxCell id="1" parent="0" />
        <mxCell id="3OvzmX8blxxFSiHACstX-29" value="" style="rounded=0;whiteSpace=wrap;html=1;" vertex="1" parent="1">
          <mxGeometry x="1091.6" y="770" width="360" height="95" as="geometry" />
        </mxCell>
        <mxCell id="3OvzmX8blxxFSiHACstX-22" value="" style="group" vertex="1" connectable="0" parent="1">
          <mxGeometry x="1100" y="170" width="550" height="350" as="geometry" />
        </mxCell>
        <mxCell id="3OvzmX8blxxFSiHACstX-21" value="" style="rounded=0;whiteSpace=wrap;html=1;" vertex="1" parent="3OvzmX8blxxFSiHACstX-22">
          <mxGeometry width="550" height="340" as="geometry" />
        </mxCell>
        <mxCell id="3OvzmX8blxxFSiHACstX-1" value="" style="dashed=0;outlineConnect=0;html=1;align=center;labelPosition=center;verticalLabelPosition=bottom;verticalAlign=top;shape=mxgraph.weblogos.google_drive" vertex="1" parent="3OvzmX8blxxFSiHACstX-22">
          <mxGeometry x="26.600000000000023" y="90" width="50" height="40" as="geometry" />
        </mxCell>
        <mxCell id="3OvzmX8blxxFSiHACstX-2" value="" style="shadow=0;dashed=0;html=1;strokeColor=none;fillColor=#4495D1;labelPosition=center;verticalLabelPosition=bottom;verticalAlign=top;align=center;outlineConnect=0;shape=mxgraph.veeam.google_document;" vertex="1" parent="3OvzmX8blxxFSiHACstX-22">
          <mxGeometry x="33.200000000000045" y="160" width="36.8" height="50.8" as="geometry" />
        </mxCell>
        <mxCell id="3OvzmX8blxxFSiHACstX-7" value="&lt;h1 style=&quot;margin-top: 0px;&quot;&gt;Drive API&lt;/h1&gt;&lt;p&gt;&lt;/p&gt;&lt;ul&gt;&lt;li&gt;Create a copy of the base resume&lt;/li&gt;&lt;ul&gt;&lt;li&gt;Follow the naming format &quot;Person_Name_Resume_CompanyName&lt;br&gt;&lt;/li&gt;&lt;/ul&gt;&lt;li&gt;Move the Resume to the specified folder&lt;/li&gt;&lt;li&gt;Use Docs API to format the resume&lt;/li&gt;&lt;li&gt;Download the PDF Format of the Resume&lt;/li&gt;&lt;/ul&gt;&lt;p&gt;&lt;/p&gt;" style="text;html=1;whiteSpace=wrap;overflow=hidden;rounded=0;" vertex="1" parent="3OvzmX8blxxFSiHACstX-22">
          <mxGeometry x="120" y="19.5" width="429" height="181" as="geometry" />
        </mxCell>
        <mxCell id="3OvzmX8blxxFSiHACstX-8" value="&lt;h1 style=&quot;margin-top: 0px;&quot;&gt;Docs API&lt;/h1&gt;&lt;p&gt;&lt;/p&gt;&lt;ul&gt;&lt;li&gt;batchUpdate()&lt;/li&gt;&lt;ul&gt;&lt;li&gt;Use the deleteContentRange() and insert() to update skills&lt;/li&gt;&lt;li&gt;Use replaceText() to update resume points&lt;/li&gt;&lt;/ul&gt;&lt;/ul&gt;&lt;p&gt;&lt;/p&gt;" style="text;html=1;whiteSpace=wrap;overflow=hidden;rounded=0;" vertex="1" parent="3OvzmX8blxxFSiHACstX-22">
          <mxGeometry x="120" y="210.8" width="429" height="139.2" as="geometry" />
        </mxCell>
        <mxCell id="3OvzmX8blxxFSiHACstX-24" value="" style="group" vertex="1" connectable="0" parent="1">
          <mxGeometry x="1091.6" y="560" width="558.4" height="170" as="geometry" />
        </mxCell>
        <mxCell id="3OvzmX8blxxFSiHACstX-23" value="" style="rounded=0;whiteSpace=wrap;html=1;" vertex="1" parent="3OvzmX8blxxFSiHACstX-24">
          <mxGeometry width="558.4" height="170" as="geometry" />
        </mxCell>
        <mxCell id="3OvzmX8blxxFSiHACstX-19" value="" style="shape=image;verticalLabelPosition=bottom;labelBackgroundColor=default;verticalAlign=top;aspect=fixed;imageAspect=0;image=data:image/png,iVBORw0KGgoAAAANSUhEUgAAASAAAABSCAYAAAD0Hgn+AAABWWlDQ1BJQ0MgUHJvZmlsZQAAKJF1kL1KA0EUhU9iJGF1o4WdFluqRAlR0UqMKYIguKz/dpvNuhE2cZhdEX8qH0DUIp2V4itEO7EMdoKC+ALWQhoN452smkRxhsv5OJy5c7lAOGYy5kYAFEs+N7Kz2tr6hhZ9RRgxqOiHYloeS+v6PEXwre2n9oiQ1IcR2Us9ruoXKl+Zzsardko5+ptvO0re9izSD6qkxbgPhBLE+q7PJB8S93EaivhEshPwpeRcwNeNzJKRIb4n7rUKZp74hTiRa/GdFi66O9bXDHL6bru0vCj7UA1gAXnswaNrk2rIYuqf/Hgjn8E2GCU5tuCgAJ/epMlhcKmDhjmUYGEUCeIUklQTcs+/99f0Ds6AyRn66rzpGfvATRmIi6Y3WAV6hoG7U2Zy82eroVrE2xxLBdxVATrLQrytAtEhoP4kxHtFiPoV0PEM3NY+AdyXYoRdTycyAAAAimVYSWZNTQAqAAAACAAEARoABQAAAAEAAAA+ARsABQAAAAEAAABGASgAAwAAAAEAAgAAh2kABAAAAAEAAABOAAAAAAAAAJAAAAABAAAAkAAAAAEAA5KGAAcAAAASAAAAeKACAAQAAAABAAABIKADAAQAAAABAAAAUgAAAABBU0NJSQAAAFNjcmVlbnNob3Q+xMgkAAAACXBIWXMAABYlAAAWJQFJUiTwAAAB1WlUWHRYTUw6Y29tLmFkb2JlLnhtcAAAAAAAPHg6eG1wbWV0YSB4bWxuczp4PSJhZG9iZTpuczptZXRhLyIgeDp4bXB0az0iWE1QIENvcmUgNi4wLjAiPgogICA8cmRmOlJERiB4bWxuczpyZGY9Imh0dHA6Ly93d3cudzMub3JnLzE5OTkvMDIvMjItcmRmLXN5bnRheC1ucyMiPgogICAgICA8cmRmOkRlc2NyaXB0aW9uIHJkZjphYm91dD0iIgogICAgICAgICAgICB4bWxuczpleGlmPSJodHRwOi8vbnMuYWRvYmUuY29tL2V4aWYvMS4wLyI+CiAgICAgICAgIDxleGlmOlBpeGVsWURpbWVuc2lvbj44MjwvZXhpZjpQaXhlbFlEaW1lbnNpb24+CiAgICAgICAgIDxleGlmOlBpeGVsWERpbWVuc2lvbj4yODg8L2V4aWY6UGl4ZWxYRGltZW5zaW9uPgogICAgICAgICA8ZXhpZjpVc2VyQ29tbWVudD5TY3JlZW5zaG90PC9leGlmOlVzZXJDb21tZW50PgogICAgICA8L3JkZjpEZXNjcmlwdGlvbj4KICAgPC9yZGY6UkRGPgo8L3g6eG1wbWV0YT4KjHmWFgAAABxpRE9UAAAAAgAAAAAAAAApAAAAKAAAACkAAAApAAAKO91/eREAAAoHSURBVHgB7Ft7VFZVFt+fAiYPA0kZeYtgpjzCcIwUlaDwSQKhhrPEtYpipSxFQQRBpwFzjAKbinTW9LCsBbo0J53RtcYREwV1Kl84JpqhYiKgvEbloTB7X73X+10+4IOQ+wF7/8F3z7n7nsfv7PM7Z+9z0DSjAAsjwAgwAiogoGECUgF1rpIRYAQEBJiA2BAYAUZANQSYgFSDnitmBBgBJiC2AUaAEVANASYg1aDnihkBRoAJiG2AEWAEVEOACUg16LliRoARYAJiG2AEGAHVEGACUg16rpgRYASYgNgGGAFGQDUEmIBUg54rZgQYASYgtgFGgBFQDQEmINWg54oZAUaACYhtgBFgBFRDgAlINei5YkaAEWACYhtgBBgB1RBgAlINeq6YEWAEmIDYBhgBRkA1BJiAVIOeK2YEGAEmILYBRoARUA0BJiDVoOeKGQFGgAmIbYARYARUQ4AJSDXouWJGgBFgAmIbYAQYAdUQYAJSDXqumBFgBJiA2AYYAUZANQSYgFSDnitmBBiBXk1A69/ZAO7uT8GM6UE80owAI2CACPRqAlq3LgOKiy+Bg6M9zJsbBq6uLgY4BNwkRqDvItArCOjWrVtw5cpVqKi4AbW1/4P6+npobm6Go0d/gMrKSmF0+/XvDx7uo+G11yLBxMS420f8l18uQen1MriBbbxz5w4MHmwF1tbW4OLiBIMGDer29hhyhTdvVsK1a6VtNFEDAwc+hrhZgKXl42BkZNSGLr8yZAR6LAHV1NRCXl4+nDp9Bopxcusrbm4jIOzlYBju7KzvJ53Wa2xshMOHj0Bubh6Ull7XWU5/JMaxY70gMHAKODs76dTpa5m5uQchO3u7Xt02MTEBD88xMHnSBHjySTe9vmElw0GgxxFQU1MTbN32DeTuP9hpFMeMeQpeeSUchgyx7nQZ7X1YWVkFWVl/g8uXr7SnKrzXaDQwO2QmTA0K1Eu/Nyt1hIAe4qABf38/mDMnBPr16/cw28CfaMe+ffvfpVYGBEwBBwc7Kd3bH3oUAR079gN8u+ufUF5W8ZvHJQgnemjorN9cjq4CSkp+hQ3vZ0Et7tLkQq6Wjc0QMDU1hRs3bgq7ort378pVwNf397Bw4XytvL6WUBKQo6MDGBk/dLPu3bsnYFdfV98CmqlTAyEk5NGMa4vKuiCDwgarVv1JKmnRoijw9HSX0r39occQEO0mTp483WXj8cQT1kI8aPjwrnV7Ghvvwtq16VoxDHtc0V4KngEeHqOBdjqi0OqXeyAP9u75F9CkEiVi/hzBpRDTfe1XSUCpqckwdOgQLRgoxkeTt+DIf+Afu/fK3mkgJSUe7O17xi6CCYhG0oDlcP5R+GLz113WQtqeU6xlwYJ5MGzY77qsXLGgbdt2wr59uWISSWcMREUthAEDTKQ85cO5c+cFd62urk54RXGNNWtWApFkXxR9CEiOy36MGeXIYkbPPz8Z5s4NlasY7DMTkAET0BtvLNHbcCi4/MwzT6OLYwMmA4yhuakZvvgyG8rw5EkUcn+m452gZ58dJ2Z16S+dxsXFJQPFqUiskUD+iERChNKe0Er++WdbJLVJGFSdjzshudTW1mJQ+6iU5efnC2ZmZkDB7qKin6H40mUoxdMjcvXs7W3Bx8cbjI31P/GjwP6PP56A8vIKqK6uxfYPBlsk6REjhrdLhsePn4Tr18uFtjnitYfRo0cJz1TW998fh7KycngMT67cXEeAm5sLWFhYSP1QPnSUgAjvpUtXCqefVBbtflJSViiL1UoXFV2A8xcuwk10hRsQPzqVpL56e3u2OV7KMRg/3gesrCy1ypYn9u7dJyVHjRqJi5+jkBbxInwOHSqQdFwQa68HLtjjeMLn24qt0rQ9e/YcXLxYLLjztLO2tR0GdnbDYORIV6DDjdZE2QeyNVPTgThGFZCffwTHsQyasPzwl2e3O+6t1aFvvsG5YHQEu3Hjp3AJJ1N7QrGUiIhwGDdurE5V8R4QGYi3t9cjXxW/O3gYvv5qq9SWN9+MAi8v/f359PT34QJOChJzc3NIT0/VCqjSVYO0tHek8t96K0kgGHJPS0quSvniA5URFhYMzz03XszS+Vtf3wBbt+6AgoJjWq6gqEy7xoDAKTBr5lTcyQ0Qs7V+5S6yHxr0H5A8aTe4f/93EiHLP5g27QWYPXumPEt67igB0YcZGR8C7SRJiJQzMt4WnpV/aNLmYF+v/ar7mJ9sKvAFf5iO7ZO7y2I5yjFYvjxGmPDie/kvkUR09FIpKzw8RDjtpIyPP/4ETpw4Jb3T9UA79cTEZS1eFRaeRWy/afVklXb2tHjRoqxLlH1IS0sRyvoI7aj5weJJ3yUlxYGTk4OuIroszyAI6PPNX0Hh6Z/wDk+N3h3z8RmLrk1km/rr12cKE2bx4te75a7Iu+/+Bc6f/1loky4CabOx+DIvrwC2bMmW1GJiooWb3GKG0nASEmJh018/gyo8cWtLaKLThNcl1dU18MEHm/AeVYmu11p5VlZWsHJlrHD3RusFJuQENHGiLxKoGchXf6U+pUNDgyEoKKDFq84Q0IYNWcKOgAojEsnMXNei3AMHDkF2znatSdZC6UGGJy4cr0ctbLGDVI5BdxPQAYwZZufs0KsPs2ZNg5m4aChF2YdlyxbDxk2fwu1bt7VU+wwB0faZLufpKwsWRMCECW2v6lQW+dfdGUeJiYmHhoYGoRu064iMjNC3S4IeuUDx8cnSN8EvzcB/I3lRSisNx8ZmqLBdtsALeZ4Ya6LrBXTZ8cTxU4rjfw2sWLFEcKWkwvCBVujMzCzcORRJ2eQmUDnkdtEVgjNnfoLCwv8KuqREE3MR7uyUIicgN3QBLiARExF44h0dV1yJGxEXWrmpLLkkJi6X3BIxv6MERP0gGxJjaHZ2trB6dYJYnPBLLtd7732Iz/dDnkbomtLdIXJXKD539eo1+Dfu1sglE8XffxLMmxcmJoVf5Rh0loDIdaqqqhbc3R07vpXqoFNQ8RTMzMxU626Tsg/kans97QHuOF7GeEpYeOasMPbkRZBocOeaiAuGk9N9t0+sRNkHS0tLbEsVmFuYCy4yue91eJnXf4ofXpYdLH72SH4NYgcUHR2LBn4/btJeLzMz/yz4q+3pdfd7Mv4lSx4afWure3vtio1NhNu3769EkydPFFxM8Rul4VA+bbdXrYprsVKT65ODK6UoDg72kJwcLyaF33wM8G+WBfhbc4t27doDu2UnTRRUp/iSXOQERPk0OeLiYjAmN1SuBnvwxG/nzt1SHt3bCcC7L3LpKAEp9ZW40Qnj6tVrhQWJ6iHXilZ9Ih+5kCuamrZeds1DAwkJS/G2urOkphyDzhKQWKC+QWjqw5o1bwuERd8SvklJy1vEn2pqaiA1NR3ol4TImOxDHhNS9oH06DLsq69GoqfQeuyI9Lpa/g8AAP//7ar+YwAADuNJREFU7VwHeFXFEp5IgBAQkI5UgVClBRQBkV4EIdJEKRJBIAoBgwk1wWASCIRi9AGC8MmH6ANRigqCQtCgolgAKdJCDQQpkV6kvfk37HLuybnJvSEkufftfB852+/szJ5/Z2fn4HGHibKZhgwZkS4HNWtWoxEjXk+3XXY1+PvvUzRhQpT6+f79e1OTJo1U3tEExsBYoHr16tBrrw1UXY8dO06RkVNV3jN3bho3diSVKfOoKpMJqPXdd9+n3bv3yCIKDx9HpUuXVPnJk2fQ4cNHRL5u3dritzw8PFS9TGCsmTNn0969+0RRpcqP0ehRb8hq8Zw9ez5t375DlQUFDaXq1auqvEzcvn2b3gqfTKfuzvHJJxvQwIEvy2rx3LgxnpYs+VyVRUSEUokSxVUeiZs3b9HJkydpy5Y/aN269TZ148eHUPnyZVXZzp276b335qp8mzYtqWfP51XemDh48DBNjYmlO8wnqHHjRuTv31s1MevgzTcDqWrVKqremIDcAgLuyalnz67Upk0LYxM6c+YsjR//tiobOnQQ1anzuMrLxM6df/Ec3hdZj4ceojGjg6hixfKy2ua5b98Bmj79PVX2xhuvU40a1VTePIfHHqtAo1ifD/G4WU0eLCSXACAIBgsaCzsnEl5kvNCSAgIGUP36dWXW4eekSdPpyJGjon21aj40cuQw1de8cKxeXtWYE0ePJlJUVIwq6tq1M3Xo0Ebkz55NpnHjJqq6gICBzG8dlTcnNm3aTIsXLxHF3t7eDEiTbZoYAShXrlwUGzuVcuf2tGkjMwsXfkybN28R2RIlS1DE2+NllXiaAQgvXEkDAN26fYvOnkkmgJmZ2rVrTd27d7EpNv5ebgbtmTOj7fKGjvPnL6Jff/1djJEvXz6aNi2KPD1zibxZB1kFQAsXfsIy+0XwgA1nwoTRIm3vz6jRE+j8ufOiulevbtSqVXPV1DwHP79O1LFjO1WflYkcAUABAUF0507qxWQliDx58/CCDaXChQtZVWdbmfmF7tu3FzVr1sRpfsbxbniWd0VQw4a+NGhQfzWGswvnxo2bFBgYzLJN2WOaNH2K+r/8khhv+/adNHv2B2rsAQP6pSlTWAYrV36l2sfERFLBgg+rvBGAKlQoz+D2pqozJ1atWkNr1qwTxVZgZgYgc3/rvAdbF80ZfPxS7eQRbDUmsvUIKluuDIWFjrIe4m7punUbaPnyL1SbiIgwtsCKibxZB1kFQJGRMXTsWKLgoXjxYtSv34uKP6tEbOwcunXrlqh65pmm1KfPC6qZeQ5mC0k1zIJEjgCg0LBIOn3qtFPT9ffvy+bxE2n2gdKeeMKX2rdvnWa7zKjEyz5s2L2XrgvvKp0ysKsEBobQv//+K1hq3boFvfBCV8WeeeE4YmWFhkWwbM+IMWrXrsU8Dhbp+Pgf6eOPP1VjO5swv3hGAMKRBPX26Isvv6bVX60V1ZkFQKP5SFKpUkXLnwwOCaWLFy6KuvSsRjT6889dNGvWPDVWcPBw8vGpLPJmHZjloDpxIjOPYCEhYXThwgXj8A6nfVgfwQZ9ODMHh38kgw1zBAAZed+4cROf/z8zFtlN+/rWpV69utvduceMCad//jlHFSqUIxw/atRI7ZOwO3gGKoJGjqUrl6+InjjH4zzvDCUlnWQ/zb2jDXbzdu1aqSHMC8f4YqhGpkR09Ew6dOiwKDUuxLXsN1mx/EtTa8ezr77aX4C77PEgAQjWWUk+qhlp9pz56oiBcvgwKrNvyoqGDgummzduiKq2bVtRjx5+Vs1U2ZEjx2jSpGkqP3ToYPbL1BJ5sw6yCoCMc1CMOZiA7N42HHOdmYODP5HhZjkOgORMfvhhM330UYrPQZbZexYp8ohwFmKRPPJIIcqVy5Nu8IKbPHk6nT+fsmt4enpSuXJl+UgymPLnz29vqPsqn/fBQvr9t61iDDiIZ0yPorx58zo85po139CqVatVe7Mz1bxwYIY//XRj1d4qERTEoHglBRR9fevRkCGviGY//vgzLVr0X9XF/5W+5J3PS+XTS+CYZTwGP0gAsnJCHz58VOhX8mnlGJd1Y8eGU3LyPyJbpy5vDK+nvTFs2fI7LViwSHansezor1ixgsibdZBVAJSymabMoVixojaWsWLUTiJvXi/2n/qoWmfmoDo9oESOBSA53xkz/sO3L/tl9r6fBQsWpNp1atLL/VJ8Ifc9oGGAbdt20BzemSWZLRhZbvXEsQu3Q8nsHAaZdy2UmRcOblRws2KPYLLDdJfUokUzeumlHiK7a9df4pZM1gUFDbNZpLLc0WdWAxD4mjv3Q/rjj22KRXuO9ClT3qGDBw+JdvCfREbek4nqbEgYfVQojo6eyBtbYdHi+PEktiaiVWscaXG0taJTfPQN4yOwpB5889aWb+CM5OgtWHT0DLZkj4iuVapUZr0ONw7jVNq8jtICUacGzkDjHA9AmBMWz4wZs4RVk4E5WnYpXbqUeBlx05RZhKvhkFGh6hiWJ08ecVuBRZ8eLVu2ktav36iadenSkTp1aq/ySJgXDnblMWOCyOrqHO3NOzmOMo0aNUSVsIqCg0OVo7Jbty735SvLDgBCuAKOrPI2DDdqE8PHpnJCr1jxJa1dm3JVD1kBgGBFWBH8NriGP5hwF7DY+RzJTmhJN2/epOHDRym5WV2ty7abf/6VFn64WGbpfgDos89X0bffxImxYFXHxk6xq3f1g3YS5nWkAciOoMzFS5cup7i4783FGcoXKFCABg/2p8wEIDBiXnSFeeccHhjAsTql7fJp3nEBWGFho/n4lsemj3nhoBJOajirzXTx4kUKnxhNly5eElW4Gp82LZLg9JU0a9YH7HDdKbKF+FYRsT1FixaR1TbPDRu+p5/5hariU4l8qlQSIQZG4MsOAAKDixcvpU2bflK89u7dk5o3f1rlkUhMPEEREVNUGSyI4OBAyxc4jmOQlhpikDp2bE9+fh1VXySMN1KlSpWkt94akwr0YNEidkpaXuhnBUA4GuKIKMle/Jg5pOLZZ9vS888/J7vZPK9du04x02KpWNGiQl/1OMbLuAma15EGIBvxpZ2BQ3X+go/ozOmUm520W9uvhXUBK+NB0Jz3F9C2rX+qoWEJISixKV+DlypVgpDH8WjfvgRh9UjTGh3wUoeEjLB0qJoXDtrDtzVokD89/nhNFasCnw9iWXDMkoTfx+I2UgLv8jEIurt7TY9gPyxGo28H7Xfs2EXz5i1Ut3MNGtanwfybRsouADrHsS6hoRHKOn6YQwOi2MIx+96MYAu+O/AL7Mf6Nwbf7d+fwJbFHDUWwDqcLapChQoap5oK9HAZ0qdPLypQIMW3CMvsk0+W0V4OCLxz+w73xT9rAIL1FsgWlXSSI3YMG6ORL9GZ/4A3Y2Apjvht27a0AVLoftGiJbR163bRDTFUYaEhNsGq5nWkAUhK2Innrl17aPXqdZSQcNCJXiQc0M2bN+VdrZNT/ZxpfOXKVZo770Pa89dey24ADZjyZkJ5X3YsN37KOrzAvHDgVJY+EC8vL6pZs7oYd/+BBLrKPEiCtTdx4jj1gshyPBHvgriXe+QhrDWfqnevnY8et5ExwBM3KtInIvtlFwDh941HLOSfe64Dde78LJKKAPjh4dF0+fJlVYZjGG7O8vCRJulEEh04YLuWEKGNa3szISYKvklcdEjCxlGcAfzq1avqyh/H3YO8YcowCCsLCP1jYt7l306QQxFAtFzZMgL4/P37qHKA7US2auWlAioAkrBKH320NG/KZ2nPnn106VKK1Yv6li2foRdf7I6kIvM60gCkRJOxxG5+0Q/xojjNVtG169fJk48b+Vgxv/zyG12/dk0Mip0A4fkBQwZSkSIpDsWM/ZpjvbCzLftsJcVtiOcOKTtgWj1xBAoYMsBuLAv6Wi2c+PifVNSu1fhYzDgCGj9NMLaD9bOSb97Wfv2tsdgyjeMknPe1alVPVZ+dAATAx+cM8sUESEZFhXGgpK3lkpT0t4jvwTpJi3BcRSBpWp/S4PMOzFkG+5nHwy0hotgRiX7qboybPQBKTDzO1/7TU40FK+6dd6JtrKETJ06KANL05gB+wD/CVLy8bG9irdaRvc9JzPPK7LxLOKEzOml5dVmOo187dGjLkcX1MzpUhvth8W38bpP49MBolcgBy5cvx7tUM46paZDm5wFob7VwECC3hsEDDmwZg4S2sKawA8MaQJhCeoSdc/367wgvljySyT4AMV8+GnTr1pkXs/VVfXYCEPj8hh20n7OjVlIzjv7ta4j+leUAqfXsz4rnQEwZnCjrADwNGtTj2KvWHLJRRhbbfeL7LISLwHKCzw0E+UCfGMPbO5/4PlB+22cPgNAPn998+ukKHusQ5+SG5cEWz1g+tt/7fg9tMYe4uHjaxL99juPcjIQ54FMN6Mr4/ZexjdU60gBklFAmpSMipopjifnboEwa3ulhsEjxyQZ2bIACHL74NslRSm/h4NoXH2hi58c1fj4n4nokDziinGZTHgGc+fN7C9Ne+jZkG3d4wnKBvJKTk9m3dUPoAz6wjMgM8sBGA13Cf2Z0zjsrKxzrwBc+TSrKTuS0+IGVDUsIurp69ZrwL0LvVv4jZ/nIqvZubQFhkWFHcBdKD4DcZZ56Hv8/EnBrAHI3NWoAcjeN6vloAHKhNaAByIWUpVl1SAIagBwSU85opAEoZ+hBc5F5EtAAlHmyfOAjaQB64CLWP5DFEtAAlMUCv5+fw5f9xk9R8B+eIZhOk5aAq0pAA5Crak7zrSXgBhLQAOQGStRT0BJwVQloAHJVzWm+tQTcQAIagNxAiXoKWgKuKgENQK6qOc23loAbSEADkBsoUU9BS8BVJaAByFU1p/nWEnADCWgAcgMl6iloCbiqBDQAuarmNN9aAm4gAQ1AbqBEPQUtAVeVgAYgV9Wc5ltLwA0koAHIDZSop6Al4KoS0ADkqprTfGsJuIEENAC5gRL1FLQEXFUCGoBcVXOaby0BN5CABiA3UKKegpaAq0pAA5Crak7zrSXgBhLQAOQGStRT0BJwVQloAHJVzWm+tQTcQAIagNxAiXoKWgKuKgENQK6qOc23loAbSOB/xVhssM08YNAAAAAASUVORK5CYII=;" vertex="1" parent="3OvzmX8blxxFSiHACstX-24">
          <mxGeometry x="7.309999999999945" y="10" width="105.37" height="30" as="geometry" />
        </mxCell>
        <mxCell id="3OvzmX8blxxFSiHACstX-20" value="&lt;h1 style=&quot;margin-top: 0px;&quot;&gt;Chat Completions API&lt;/h1&gt;&lt;p&gt;&lt;/p&gt;&lt;ul&gt;&lt;li&gt;Send a prompt and receive the response&lt;/li&gt;&lt;/ul&gt;&lt;p&gt;&lt;/p&gt;" style="text;html=1;whiteSpace=wrap;overflow=hidden;rounded=0;" vertex="1" parent="3OvzmX8blxxFSiHACstX-24">
          <mxGeometry x="112.67999999999995" y="60" width="429" height="90" as="geometry" />
        </mxCell>
        <mxCell id="3OvzmX8blxxFSiHACstX-27" style="edgeStyle=orthogonalEdgeStyle;rounded=0;orthogonalLoop=1;jettySize=auto;html=1;entryX=0;entryY=0.5;entryDx=0;entryDy=0;" edge="1" parent="1" source="3OvzmX8blxxFSiHACstX-25" target="3OvzmX8blxxFSiHACstX-23">
          <mxGeometry relative="1" as="geometry">
            <Array as="points">
              <mxPoint x="980" y="453" />
              <mxPoint x="980" y="645" />
            </Array>
          </mxGeometry>
        </mxCell>
        <mxCell id="3OvzmX8blxxFSiHACstX-25" value="Node Server" style="outlineConnect=0;dashed=0;verticalLabelPosition=bottom;verticalAlign=top;align=center;html=1;shape=mxgraph.aws3.android;fillColor=#8CC64F;gradientColor=none;" vertex="1" parent="1">
          <mxGeometry x="740" y="386" width="120" height="134" as="geometry" />
        </mxCell>
        <mxCell id="3OvzmX8blxxFSiHACstX-26" style="edgeStyle=orthogonalEdgeStyle;rounded=0;orthogonalLoop=1;jettySize=auto;html=1;entryX=0.001;entryY=0.484;entryDx=0;entryDy=0;entryPerimeter=0;" edge="1" parent="1" source="3OvzmX8blxxFSiHACstX-25" target="3OvzmX8blxxFSiHACstX-21">
          <mxGeometry relative="1" as="geometry" />
        </mxCell>
        <mxCell id="3OvzmX8blxxFSiHACstX-28" value="&lt;h1 style=&quot;margin-top: 0px;&quot;&gt;&lt;font style=&quot;font-size: 15px;&quot;&gt;Chat Completion&lt;/font&gt;&lt;/h1&gt;&lt;div&gt;&lt;b&gt;Base URL:&lt;/b&gt;&amp;nbsp;POST&amp;nbsp;https://openrouter.ai/api/v1/chat/completions&lt;/div&gt;&lt;p&gt;&lt;br&gt;&lt;/p&gt;&lt;p&gt;&lt;b&gt;&lt;br&gt;&lt;/b&gt;&lt;/p&gt;" style="text;html=1;whiteSpace=wrap;overflow=hidden;rounded=0;" vertex="1" parent="1">
          <mxGeometry x="1101.6" y="770" width="380" height="85" as="geometry" />
        </mxCell>
        <mxCell id="3OvzmX8blxxFSiHACstX-30" value="" style="rounded=0;whiteSpace=wrap;html=1;" vertex="1" parent="1">
          <mxGeometry x="1700" y="170" width="390" height="95" as="geometry" />
        </mxCell>
        <mxCell id="3OvzmX8blxxFSiHACstX-31" value="&lt;h1 style=&quot;margin-top: 0px;&quot;&gt;&lt;span style=&quot;font-size: 15px;&quot;&gt;Get Document By ID&lt;/span&gt;&lt;/h1&gt;&lt;div&gt;&lt;b&gt;Base URL:&lt;/b&gt;&amp;nbsp;GET https://docs.googleapis.com/v1/documents/{file ID}&lt;/div&gt;&lt;p&gt;&lt;br&gt;&lt;/p&gt;&lt;p&gt;&lt;b&gt;&lt;br&gt;&lt;/b&gt;&lt;/p&gt;" style="text;html=1;whiteSpace=wrap;overflow=hidden;rounded=0;" vertex="1" parent="1">
          <mxGeometry x="1710" y="170" width="380" height="85" as="geometry" />
        </mxCell>
        <mxCell id="3OvzmX8blxxFSiHACstX-32" value="" style="rounded=0;whiteSpace=wrap;html=1;" vertex="1" parent="1">
          <mxGeometry x="1700" y="270" width="470" height="95" as="geometry" />
        </mxCell>
        <mxCell id="3OvzmX8blxxFSiHACstX-33" value="&lt;h1 style=&quot;margin-top: 0px;&quot;&gt;&lt;span style=&quot;font-size: 15px;&quot;&gt;Insert, Replace, Delete&lt;/span&gt;&lt;/h1&gt;&lt;div&gt;&lt;b&gt;Base URL:&lt;/b&gt;&amp;nbsp;POST https://docs.googleapis.com/v1/documents/{file ID}:batchUpdate&lt;/div&gt;&lt;p&gt;&lt;br&gt;&lt;/p&gt;&lt;p&gt;&lt;b&gt;&lt;br&gt;&lt;/b&gt;&lt;/p&gt;" style="text;html=1;whiteSpace=wrap;overflow=hidden;rounded=0;" vertex="1" parent="1">
          <mxGeometry x="1710" y="270" width="450" height="85" as="geometry" />
        </mxCell>
        <mxCell id="3OvzmX8blxxFSiHACstX-37" value="" style="rounded=0;whiteSpace=wrap;html=1;" vertex="1" parent="1">
          <mxGeometry x="1700" y="378" width="470" height="95" as="geometry" />
        </mxCell>
        <mxCell id="3OvzmX8blxxFSiHACstX-38" value="&lt;h1 style=&quot;margin-top: 0px;&quot;&gt;&lt;span style=&quot;font-size: 15px;&quot;&gt;Copy an Existing File&lt;/span&gt;&lt;/h1&gt;&lt;div&gt;&lt;b&gt;Base URL:&lt;/b&gt;&amp;nbsp;POST https://www.googleapis.com/drive/v3/files/{{resume_base_full_stack_id}}/copy&lt;/div&gt;&lt;p&gt;&lt;br&gt;&lt;/p&gt;&lt;p&gt;&lt;b&gt;&lt;br&gt;&lt;/b&gt;&lt;/p&gt;" style="text;html=1;whiteSpace=wrap;overflow=hidden;rounded=0;" vertex="1" parent="1">
          <mxGeometry x="1710" y="378" width="450" height="85" as="geometry" />
        </mxCell>
        <mxCell id="3OvzmX8blxxFSiHACstX-39" value="" style="rounded=0;whiteSpace=wrap;html=1;" vertex="1" parent="1">
          <mxGeometry x="1700" y="480" width="560" height="95" as="geometry" />
        </mxCell>
        <mxCell id="3OvzmX8blxxFSiHACstX-40" value="&lt;h1 style=&quot;margin-top: 0px;&quot;&gt;&lt;span style=&quot;font-size: 15px;&quot;&gt;Move file to an existing folder&lt;/span&gt;&lt;/h1&gt;&lt;div&gt;&lt;b&gt;Base URL:&lt;/b&gt;&amp;nbsp;POST https://www.googleapis.com/drive/v3/files/{file ID}?addParents={{new_folder_id}}&lt;/div&gt;&lt;p&gt;&lt;br&gt;&lt;/p&gt;&lt;p&gt;&lt;b&gt;&lt;br&gt;&lt;/b&gt;&lt;/p&gt;" style="text;html=1;whiteSpace=wrap;overflow=hidden;rounded=0;" vertex="1" parent="1">
          <mxGeometry x="1710" y="480" width="570" height="85" as="geometry" />
        </mxCell>
        <mxCell id="3OvzmX8blxxFSiHACstX-41" value="&lt;h1 style=&quot;margin-top: 0px;&quot;&gt;Node API&lt;/h1&gt;&lt;p&gt;&lt;/p&gt;&lt;ul&gt;&lt;li&gt;API to accept Job Description, Resume.&lt;/li&gt;&lt;ul&gt;&lt;li&gt;Cleans the Prompt&lt;/li&gt;&lt;li&gt;Request to OpenRouter&lt;/li&gt;&lt;li&gt;Response Sent to User&lt;/li&gt;&lt;/ul&gt;&lt;li&gt;API to receive the point modifications made by user&lt;/li&gt;&lt;ul&gt;&lt;li&gt;Finds the start and end indexes of each point&lt;/li&gt;&lt;/ul&gt;&lt;/ul&gt;&lt;p&gt;&lt;/p&gt;" style="text;html=1;whiteSpace=wrap;overflow=hidden;rounded=0;" vertex="1" parent="1">
          <mxGeometry x="430" y="570" width="429" height="181" as="geometry" />
        </mxCell>
      </root>
    </mxGraphModel>
  </diagram>
</mxfile>
